<?xml version="1.0" encoding="iso-8859-1"?>
<!-- Generator: Adobe Illustrator 19.0.0, SVG Export Plug-In . SVG Version: 6.00 Build 0)  -->
<svg version="1.1" id="Capa_1" xmlns="http://www.w3.org/2000/svg" xmlns:xlink="http://www.w3.org/1999/xlink" x="0px" y="0px"
	 viewBox="0 0 512 512" style="enable-background:new 0 0 512 512;" xml:space="preserve">
<path style="fill:#D4F582;" d="M117.1,25.121c-10.328,34.623-28.674,118.751-10.653,238.894l32.065,152.305l32.065-80.161
	c-38.972-116.914-45.95-260.143-47.196-310.282C123.29,22.214,118.148,21.61,117.1,25.121z"/>
<path style="fill:#AFD755;" d="M210.286,262.512c-55.534,11.353-63.759,137.776-63.759,137.776l32.065,96.193
	c0,0,22.38-184.169,46.057-188.378c23.277-4.138,122.652,72.63,166.32,107.489c2.976,2.375,6.883-1.479,4.531-4.474
	C357.873,363.191,263.679,251.597,210.286,262.512z"/>
<path style="fill:#BEE86E;" d="M66.378,120.897c-0.316,60.462,5.669,220.784,69.426,383.601h59.453
	C130.766,350.933,87.511,182.045,72.68,120.14C71.798,116.456,66.398,117.109,66.378,120.897z"/>
<g>
	<path style="fill:#FFDC64;" d="M286.439,24.535c-15.435,4.269-28.865,11.544-40.677,20.895
		c83.15-4.237,171.942,58.984,197.992,146.441C458.785,62.611,380.628-1.517,286.439,24.535z"/>
	<path style="fill:#FFDC64;" d="M285.471,127.626c-22.37,1.975-41.646,13.807-57.873,29.899
		c121.941-27.567,176.077,178.636,176.077,178.636S420.374,115.718,285.471,127.626z"/>
</g>
<path d="M405.485,39.263C373.939,12.24,330.951,4.44,284.44,17.307c-32.215,8.911-59.009,30.447-79.636,64.012
	c-16.138,26.259-28.539,59.941-36.859,100.11c-5.771,27.866-8.771,54.769-10.297,76.993
	C132.935,141.826,130.634,8.927,130.611,7.389c-0.053-3.526-2.555-6.539-6.011-7.238c-3.457-0.702-6.933,1.102-8.353,4.33
	c-0.39,0.887-9.635,22.18-16.641,62.699c-4.215,24.373-8.1,59.124-7.587,102.887c-11.829-46.619-17.54-75.222-17.662-75.842
	c-0.731-3.703-4.1-6.293-7.866-6.03c-3.766,0.255-6.755,3.27-6.979,7.038c-0.031,0.512-2.958,52.052,4.111,128.143
	c6.521,70.191,23.125,176.415,65.198,283.856c1.159,2.958,3.989,4.767,6.986,4.767c0.909,0,1.835-0.167,2.733-0.518
	c3.857-1.511,5.759-5.862,4.249-9.719C101.401,396.071,85.033,291.458,78.59,222.31c-2.085-22.374-3.294-42.583-3.963-59.938
	c14.008,56.414,38.104,144.111,73.42,241.805c1.408,3.896,5.707,5.911,9.603,4.503c3.895-1.408,5.912-5.708,4.503-9.603
	c-1.43-3.955-2.835-7.888-4.228-11.809c0.135-2.897,1.532-29.05,8.844-56.172c6.773-25.122,20.082-56.139,45.021-61.237
	c24.679-5.045,66.972,22.454,119.087,77.433c12.418,13.101,24.129,26.416,34.435,38.63c-9.87-7.614-20.539-15.708-31.416-23.734
	c-25.156-18.562-46.512-33.148-63.473-43.353c-30.122-18.123-40.988-19.202-47.086-18.117
	c-10.403,1.849-21.803,14.407-34.674,93.089c-3.261,19.934-5.874,39.87-7.724,55.346c-2.455-6.308-4.89-12.646-7.296-19.005
	c-1.466-3.874-5.795-5.825-9.669-4.361c-3.874,1.466-5.826,5.794-4.361,9.668c9.267,24.493,18.933,48.701,28.731,71.954
	c1.208,2.866,3.988,4.589,6.915,4.589c0.971,0,1.958-0.19,2.909-0.59c3.817-1.608,5.607-6.007,3.999-9.824
	c-3.152-7.48-6.288-15.069-9.404-22.727c0.505-5.181,4.166-41.837,10.171-79.349c11.78-73.581,21.629-82.973,23.277-84.056
	c1.867-0.168,10.155,0.4,36.459,16.223c16.553,9.958,37.505,24.273,62.275,42.548c42.352,31.248,81.581,63.588,81.973,63.911
	c2.912,2.404,7.16,2.268,9.913-0.32c2.752-2.588,3.149-6.819,0.927-9.875c-0.337-0.463-34.169-46.829-75.898-90.865
	c-57.474-60.655-102.242-88.212-133.074-81.913c-15.976,3.266-28.09,13.636-37.276,27.22c0.129-3.951,0.307-8.21,0.544-12.723
	c5.536-16.449,24.815-68.568,57.053-102.982c12.554-4.371,24.958-5.711,36.892-3.957c4.097,0.601,7.908-2.233,8.51-6.331
	c0.602-4.099-2.233-7.909-6.331-8.51c-5.216-0.766-10.493-1.038-15.809-0.838c10.316-6.521,21.571-10.87,33.763-11.946
	c26.719-2.357,48.965,5.03,66.115,21.96c32.81,32.388,41.853,92.966,43.973,134.504c-3.589-9.044-7.841-19.012-12.763-29.38
	c-24.523-51.655-52.68-86.465-83.689-103.465c-3.633-1.99-8.191-0.661-10.182,2.971c-1.991,3.632-0.661,8.191,2.971,10.182
	c67.726,37.129,103.533,164.99,103.886,166.277c0.902,3.281,3.883,5.514,7.227,5.514c0.24,0,0.483-0.012,0.727-0.035
	c3.63-0.351,6.482-3.261,6.757-6.898c0.102-1.348,2.448-33.466-2.126-72.928c-6.233-53.762-21.785-93.26-46.226-117.399
	c-20.432-20.18-46.672-29.011-77.99-26.245c-20.28,1.79-39.764,11.087-57.912,27.634c-14.098,12.854-27.44,30.124-39.656,51.33
	c-3.844,6.672-7.326,13.294-10.451,19.662c1.526-11.196,3.457-22.83,5.896-34.574c7.977-38.403,19.74-70.414,34.963-95.145
	c7.359-11.956,15.543-22.203,24.511-30.705c30.805-7.967,71.975,2.249,110.281,27.392c40.979,26.896,71.641,66.356,84.123,108.263
	c1.017,3.412,4.288,5.639,7.839,5.331c3.547-0.309,6.388-3.069,6.799-6.605C458.999,125.702,442.763,71.198,405.485,39.263z
	 M111.788,243.162c-9.069-77.801-3.666-136.855,2.478-172.726c1.028-6.001,2.11-11.573,3.206-16.702
	c3.42,61.683,12.919,173.361,38.732,260.598c-4.696,13.737-7.754,27.832-9.732,39.918
	C132.925,314.228,121.393,276.647,111.788,243.162z M360.674,73.208c-31.4-20.609-64.972-31.915-94.509-32.441
	c7.072-3.849,14.501-6.854,22.273-9.004c41.549-11.492,79.652-4.783,107.288,18.892c27.203,23.304,41.807,60.736,42.373,107.323
	C421.146,125.005,394.095,95.144,360.674,73.208z"/>
<g>
</g>
<g>
</g>
<g>
</g>
<g>
</g>
<g>
</g>
<g>
</g>
<g>
</g>
<g>
</g>
<g>
</g>
<g>
</g>
<g>
</g>
<g>
</g>
<g>
</g>
<g>
</g>
<g>
</g>
</svg>
