<svg xmlns="http://www.w3.org/2000/svg" xmlns:xlink="http://www.w3.org/1999/xlink" xmlns:lucid="lucid" width="380" height="340"><g transform="translate(-520 -100)" lucid:page-tab-id="q9YweOgBrl-3"><path d="M540 120h340v300H540z" stroke="#000" stroke-opacity="0" stroke-width="2" fill="#3aa6dd"/><path d="M640 240h240v180H640z" stroke="#000" stroke-opacity="0" stroke-width="6" fill="#fff" fill-opacity="0"/><use xlink:href="#a" transform="matrix(1,0,0,1,645,245) translate(-13.020833333333343 170.625)"/><defs><path fill="#fff" d="M473-1349c438-1 655 221 652 661C1122-268 945-8 532 0H162v-1349h311zm42 1193c308-4 416-205 418-532 2-330-131-509-459-505H353v1037h162" id="b"/><path fill="#fff" d="M614-1226c-167 1-283 53-283 213 0 183 186 193 334 234 230 63 463 120 463 409 0 286-219 387-518 390C309 23 131-98 79-338l185-37c34 165 149 248 351 246 184-2 324-58 324-238 0-203-207-221-372-266-210-57-422-111-422-377 0-267 201-356 470-360 279-5 430 101 480 324l-188 33c-28-141-121-215-293-213" id="c"/><g id="a"><use transform="matrix(0.10416666666666667,0,0,0.10416666666666667,0,0)" xlink:href="#b"/><use transform="matrix(0.10416666666666667,0,0,0.10416666666666667,128.02083333333334,0)" xlink:href="#c"/></g></defs></g></svg>