<svg xmlns="http://www.w3.org/2000/svg" xmlns:xlink="http://www.w3.org/1999/xlink" xmlns:lucid="lucid" width="122" height="122"><g transform="translate(-764 -299)" lucid:page-tab-id="q9YweOgBrl-3"><path d="M760 307h120v113H760z" stroke="#000" stroke-opacity="0" stroke-width="2" fill="#fcc438"/><path d="M720 360h240v70H720z" stroke="#000" stroke-opacity="0" stroke-width="6" fill="#fff" fill-opacity="0"/><use xlink:href="#a" transform="matrix(1,0,0,1,725,365) translate(74.99348958333333 53.32031250000001)"/><defs><path d="M473-1349c438-1 655 221 652 661C1122-268 945-8 532 0H162v-1349h311zm42 1193c308-4 416-205 418-532 2-330-131-509-459-505H353v1037h162" id="b"/><path d="M614-1226c-167 1-283 53-283 213 0 183 186 193 334 234 230 63 463 120 463 409 0 286-219 387-518 390C309 23 131-98 79-338l185-37c34 165 149 248 351 246 184-2 324-58 324-238 0-203-207-221-372-266-210-57-422-111-422-377 0-267 201-356 470-360 279-5 430 101 480 324l-188 33c-28-141-121-215-293-213" id="c"/><g id="a"><use transform="matrix(0.032552083333333336,0,0,0.032552083333333336,0,0)" xlink:href="#b"/><use transform="matrix(0.032552083333333336,0,0,0.032552083333333336,40.00651041666667,0)" xlink:href="#c"/></g></defs></g></svg>